if (_typeface_js && _typeface_js.loadFace) _typeface_js.loadFace({"glyphs":{"S":{"x_min":56.90625,"x_max":629.8125,"ha":684,"o":"m 352 937 q 589 877 482 937 l 589 790 q 351 860 470 860 q 258 841 299 860 q 191 788 216 822 q 166 705 166 753 q 192 623 166 656 q 257 568 218 589 q 353 526 296 547 q 493 466 436 496 q 589 383 549 436 q 629 250 629 330 q 588 110 629 169 q 477 19 546 51 q 324 -11 407 -11 q 189 7 253 -11 q 56 64 125 26 l 56 155 q 190 89 121 112 q 328 65 260 65 q 432 87 384 65 q 508 149 480 108 q 537 244 537 190 q 505 340 537 301 q 429 402 473 380 q 321 449 385 425 q 194 503 246 474 q 108 580 141 532 q 74 700 74 628 q 111 829 74 775 q 211 910 148 882 q 352 937 273 937 "},"F":{"x_min":116.703125,"x_max":652.96875,"ha":668,"o":"m 595 503 l 595 429 l 209 429 l 209 0 l 116 0 l 116 925 l 652 925 l 652 848 l 209 848 l 209 503 l 595 503 "},"T":{"x_min":37.609375,"x_max":770.640625,"ha":809,"o":"m 357 0 l 357 848 l 37 848 l 37 925 l 770 925 l 770 848 l 450 848 l 450 0 l 357 0 "},"N":{"x_min":114.765625,"x_max":898.921875,"ha":1016,"o":"m 204 0 l 114 0 l 114 925 l 216 925 l 809 135 l 809 925 l 898 925 l 898 0 l 796 0 l 204 791 l 204 0 "},"K":{"x_min":116.703125,"x_max":770.640625,"ha":788,"o":"m 209 925 l 209 0 l 116 0 l 116 925 l 209 925 m 220 491 l 597 925 l 712 925 l 329 493 l 770 0 l 652 0 l 220 491 "},"Y":{"x_min":33.75,"x_max":821.75,"ha":856,"o":"m 381 452 l 33 925 l 149 925 l 429 536 l 709 925 l 821 925 l 474 452 l 474 0 l 381 0 l 381 452 "},"E":{"x_min":116.703125,"x_max":652.96875,"ha":705,"o":"m 595 508 l 595 434 l 209 434 l 209 77 l 652 77 l 652 0 l 116 0 l 116 925 l 652 925 l 652 848 l 209 848 l 209 508 l 595 508 "},"V":{"x_min":69.4375,"x_max":886.375,"ha":957,"o":"m 169 925 l 477 119 l 785 925 l 886 925 l 527 0 l 428 0 l 69 925 l 169 925 "},"Z":{"x_min":45.328125,"x_max":778.359375,"ha":825,"o":"m 778 0 l 45 0 l 45 77 l 660 848 l 45 848 l 45 925 l 778 925 l 778 848 l 163 77 l 778 77 l 778 0 "},"Q":{"x_min":37.609375,"x_max":1002.125,"ha":1042,"o":"m 1002 462 q 964 277 1002 364 q 860 125 927 190 l 1002 0 l 900 0 l 808 81 q 673 12 747 36 q 519 -11 599 -11 q 277 51 388 -11 q 102 223 166 114 q 37 462 37 332 q 102 702 37 593 q 277 874 166 811 q 519 937 388 937 q 761 874 651 937 q 937 702 872 811 q 1002 462 1002 593 m 519 73 q 739 142 639 73 l 508 347 l 609 347 l 790 186 q 873 311 843 240 q 903 462 903 382 q 852 659 903 570 q 712 800 800 748 q 519 852 624 852 q 327 800 415 852 q 187 659 239 748 q 135 462 135 570 q 187 266 135 355 q 327 125 239 177 q 519 73 415 73 "},"M":{"x_min":116.703125,"x_max":1017.546875,"ha":1136,"o":"m 594 315 l 538 315 l 206 791 l 206 0 l 116 0 l 116 925 l 221 925 l 567 432 l 910 925 l 1017 925 l 1017 0 l 924 0 l 924 793 l 594 315 "},"C":{"x_min":37.609375,"x_max":863.234375,"ha":910,"o":"m 513 937 q 706 900 619 937 q 863 798 794 864 l 863 690 q 711 809 798 766 q 524 852 624 852 q 329 800 418 852 q 188 659 240 748 q 135 462 135 570 q 188 266 135 355 q 329 125 240 177 q 524 73 418 73 q 711 116 624 73 q 863 235 798 159 l 863 127 q 707 24 795 60 q 513 -11 620 -11 q 273 51 382 -11 q 101 223 164 114 q 37 462 37 332 q 101 702 37 593 q 273 874 164 811 q 513 937 382 937 "},"L":{"x_min":136.953125,"x_max":674.1875,"ha":710,"o":"m 136 0 l 136 925 l 229 925 l 229 84 l 674 84 l 674 0 l 136 0 "},"A":{"x_min":69.4375,"x_max":886.375,"ha":957,"o":"m 428 925 l 527 925 l 886 0 l 793 0 l 678 300 l 276 300 l 162 0 l 69 0 l 428 925 m 477 839 l 304 378 l 651 378 l 477 839 "},"J":{"x_min":2.890625,"x_max":492.859375,"ha":611,"o":"m 492 277 q 456 124 492 190 q 356 23 420 58 q 211 -11 293 -11 q 97 8 151 -11 q 2 65 43 28 l 2 171 q 91 103 41 128 q 192 78 141 78 q 297 102 249 78 q 372 173 344 126 q 400 285 400 220 l 400 925 l 492 925 l 492 277 "},"O":{"x_min":37.609375,"x_max":1002.125,"ha":1042,"o":"m 519 937 q 761 874 651 937 q 937 702 872 811 q 1002 462 1002 593 q 937 223 1002 332 q 761 51 872 114 q 519 -11 651 -11 q 277 51 388 -11 q 102 223 166 114 q 37 462 37 332 q 102 702 37 593 q 277 874 166 811 q 519 937 388 937 m 519 852 q 327 800 415 852 q 187 659 239 748 q 135 462 135 570 q 187 266 135 355 q 327 125 239 177 q 519 73 415 73 q 712 125 624 73 q 852 266 800 177 q 903 462 903 355 q 852 659 903 570 q 712 800 800 748 q 519 852 624 852 "},"W":{"x_min":68.46875,"x_max":1318.484375,"ha":1389,"o":"m 450 0 l 357 0 l 68 925 l 161 925 l 404 133 l 647 925 l 739 925 l 982 133 l 1225 925 l 1318 925 l 1029 0 l 936 0 l 693 792 l 450 0 "}," ":{"x_min":0,"x_max":0,"ha":500},"X":{"x_min":33.75,"x_max":838.15625,"ha":872,"o":"m 434 414 l 145 0 l 33 0 l 379 482 l 62 925 l 178 925 l 436 551 l 696 925 l 809 925 l 492 484 l 838 0 l 722 0 l 434 414 "},"P":{"x_min":116.703125,"x_max":680.9375,"ha":742,"o":"m 411 925 q 546 890 485 925 q 644 793 608 854 q 680 660 680 733 q 644 527 680 588 q 546 430 608 465 q 411 394 485 394 l 209 394 l 209 0 l 116 0 l 116 925 l 411 925 m 402 471 q 495 497 453 471 q 563 566 538 522 q 588 660 588 609 q 563 754 588 711 q 495 823 538 797 q 402 848 453 848 l 209 848 l 209 471 l 402 471 "},"B":{"x_min":116.703125,"x_max":711.796875,"ha":757,"o":"m 398 925 q 529 895 470 925 q 620 812 587 865 q 653 694 653 759 q 618 575 653 628 q 523 495 582 521 q 659 407 606 472 q 711 255 711 341 q 675 125 711 184 q 574 33 638 67 q 431 0 510 0 l 116 0 l 116 925 l 398 925 m 393 522 q 477 544 439 522 q 538 605 516 567 q 561 687 561 643 q 538 770 561 732 q 477 830 516 808 q 393 853 439 853 l 209 853 l 209 522 l 393 522 m 426 72 q 523 97 479 72 q 593 167 568 123 q 619 263 619 211 q 593 358 619 315 q 523 427 568 402 q 426 453 479 453 l 209 453 l 209 72 l 426 72 "},"H":{"x_min":116.703125,"x_max":881.5625,"ha":999,"o":"m 212 429 l 212 0 l 116 0 l 116 925 l 212 925 l 212 514 l 785 514 l 785 925 l 881 925 l 881 0 l 785 0 l 785 429 l 212 429 "},"D":{"x_min":116.703125,"x_max":947.140625,"ha":987,"o":"m 473 925 q 711 864 602 925 q 883 697 819 803 q 947 462 947 591 q 883 228 947 334 q 711 61 819 122 q 473 0 602 0 l 116 0 l 116 925 l 473 925 m 473 81 q 662 132 575 81 q 798 270 748 183 q 848 462 848 357 q 798 654 848 568 q 662 791 748 741 q 473 842 575 842 l 209 842 l 209 81 l 473 81 "},"R":{"x_min":129.234375,"x_max":752.3125,"ha":800,"o":"m 424 925 q 559 890 497 925 q 657 793 621 854 q 694 660 694 733 q 668 548 694 600 q 596 461 642 496 q 494 414 550 425 l 752 0 l 646 0 l 401 394 l 221 394 l 221 0 l 129 0 l 129 925 l 424 925 m 414 471 q 508 497 465 471 q 575 566 550 522 q 600 660 600 609 q 575 754 600 711 q 508 823 550 797 q 414 848 465 848 l 221 848 l 221 471 l 414 471 "},"I":{"x_min":121.53125,"x_max":214.109375,"ha":337,"o":"m 214 925 l 214 0 l 121 0 l 121 925 l 214 925 "},"G":{"x_min":37.609375,"x_max":877.703125,"ha":968,"o":"m 527 937 q 717 901 624 937 q 877 798 811 865 l 877 697 q 722 810 813 768 q 532 852 631 852 q 331 801 422 852 q 188 659 241 749 q 135 462 135 570 q 188 263 135 353 q 330 121 240 173 q 529 68 420 68 q 677 99 606 68 q 800 184 748 130 l 799 413 l 519 413 l 519 484 l 877 484 l 877 133 q 715 26 808 64 q 521 -11 622 -11 q 278 51 389 -11 q 102 223 166 114 q 37 462 37 332 q 101 700 37 592 q 276 873 164 809 q 527 937 388 937 "},"U":{"x_min":93.546875,"x_max":845.875,"ha":940,"o":"m 845 362 q 795 171 845 257 q 658 37 744 85 q 469 -11 571 -11 q 280 37 366 -11 q 143 171 193 85 q 93 362 93 256 l 93 925 l 189 925 l 189 362 q 226 215 189 281 q 327 110 263 148 q 469 73 391 73 q 611 111 546 73 q 712 215 675 149 q 750 362 750 281 l 750 925 l 845 925 l 845 362 "}}}
